<?xml version="1.0" standalone="no"?>
<!DOCTYPE svg PUBLIC "-//W3C//DTD SVG 20010904//EN"
 "http://www.w3.org/TR/2001/REC-SVG-20010904/DTD/svg10.dtd">
<svg version="1.0" xmlns="http://www.w3.org/2000/svg"
 width="800.000000pt" height="800.000000pt" viewBox="0 0 800.000000 800.000000"
 preserveAspectRatio="xMidYMid meet">
<metadata>
Created by potrace 1.14, written by Peter Selinger 2001-2017
</metadata>
<g transform="translate(0.000000,800.000000) scale(0.100000,-0.100000)"
fill="#000000" stroke="none">
<path d="M3940 6997 c-6 -6 -34 -12 -110 -22 -25 -3 -85 -12 -135 -20 -49 -8
-115 -17 -145 -21 -30 -3 -64 -8 -75 -9 -11 -2 -38 -6 -60 -10 -22 -3 -85 -13
-140 -21 -55 -9 -118 -18 -140 -20 -22 -2 -49 -6 -60 -8 -11 -1 -33 -25 -50
-53 -16 -28 -93 -150 -170 -272 -77 -122 -147 -232 -155 -246 -70 -115 -210
-335 -232 -363 -15 -19 -57 -95 -94 -170 l-65 -135 2 -271 c1 -149 6 -281 10
-292 4 -12 10 -64 13 -115 6 -97 12 -193 21 -314 3 -38 8 -101 10 -140 3 -38
7 -97 10 -130 3 -33 7 -94 10 -135 3 -41 8 -111 11 -155 3 -44 7 -111 9 -150
3 -38 7 -99 10 -135 9 -114 16 -213 20 -290 3 -41 7 -97 9 -125 3 -27 7 -88
11 -134 3 -46 9 -89 12 -95 4 -6 95 -144 203 -306 107 -162 197 -299 200 -305
3 -5 84 -129 181 -275 350 -529 391 -592 393 -606 2 -11 107 -146 136 -174 3
-3 39 -45 80 -95 41 -49 77 -92 80 -95 32 -31 230 -272 230 -280 0 -22 19 -7
71 57 30 37 63 76 74 88 11 11 40 45 65 74 25 29 52 61 60 71 8 10 33 39 55
66 22 26 45 52 50 58 55 58 185 221 185 231 0 8 64 112 143 232 79 120 165
252 192 293 92 142 225 345 235 360 6 8 57 87 115 175 57 88 108 165 114 172
6 7 11 14 11 16 0 3 36 60 80 127 62 92 82 131 85 163 5 54 15 174 21 257 2
36 6 88 9 115 2 28 7 82 10 120 5 71 14 188 20 260 2 22 6 76 9 120 4 44 9
103 11 130 14 158 17 195 20 245 3 51 9 126 20 260 8 99 15 174 20 250 3 41
10 91 15 110 5 19 9 154 10 300 0 145 4 266 9 270 12 7 -120 275 -153 309 -14
15 -26 30 -26 33 0 4 -26 46 -58 95 -33 48 -75 113 -94 143 -19 30 -63 97 -97
148 -33 51 -61 95 -61 96 0 2 -22 36 -48 77 -27 41 -70 108 -97 149 -26 41
-64 100 -84 130 -19 30 -36 56 -36 56 0 1 -25 5 -55 8 -30 4 -82 11 -115 16
-33 5 -80 12 -105 15 -25 3 -56 7 -70 10 -13 3 -40 7 -60 10 -19 3 -69 10
-110 16 -41 6 -88 12 -105 14 -37 4 -94 12 -165 26 -71 13 -194 22 -200 16z
m295 -701 c38 -3 92 -7 120 -10 27 -3 93 -8 145 -12 52 -3 111 -7 130 -9 19
-2 78 -7 130 -10 52 -4 111 -8 130 -10 36 -3 69 -34 537 -510 l108 -110 -12
-37 c-7 -20 -43 -160 -82 -310 -118 -462 -179 -698 -278 -1078 -19 -74 -36
-142 -38 -150 -6 -32 -100 -395 -102 -399 -2 -3 -9 3 -16 13 -12 17 -48 18
-585 18 -315 0 -572 3 -572 7 1 12 89 303 94 308 2 3 74 5 158 4 84 0 180 0
213 -1 33 0 174 1 312 3 139 1 253 -1 253 -5 0 -3 8 -4 18 -2 9 3 35 6 57 7
l40 2 2 162 c1 117 -1 165 -10 170 -7 4 -208 9 -447 10 -239 1 -441 2 -449 2
-7 1 199 212 458 469 259 258 471 472 471 475 0 4 -150 7 -332 7 l-333 0 324
324 c178 178 319 325 315 328 -5 2 -443 4 -974 3 l-965 -1 -3 -167 -2 -167
581 0 c461 0 580 -3 577 -12 -3 -7 -24 -79 -48 -160 l-43 -148 -541 -2 -541
-3 0 -165 0 -165 472 -1 c260 0 476 -3 479 -7 4 -3 -203 -216 -460 -473 -256
-256 -466 -470 -466 -474 0 -4 136 -8 303 -8 166 0 310 -1 319 -1 10 -1 -113
-129 -298 -313 -266 -264 -358 -363 -342 -369 2 -1 424 -2 938 -4 514 -1 941
-3 948 -4 9 -1 10 -6 4 -18 -5 -10 -15 -44 -22 -77 -15 -63 -22 -69 -95 -82
-22 -4 -44 -8 -50 -9 -52 -12 -268 -55 -295 -60 -19 -3 -55 -11 -80 -16 -25
-6 -54 -13 -65 -15 -11 -3 -42 -9 -70 -14 -48 -10 -66 -14 -117 -25 -127 -28
-166 -29 -278 -5 -30 6 -66 14 -80 16 -24 5 -147 31 -185 40 -11 2 -35 7 -54
10 -40 7 -58 10 -91 18 -14 3 -36 8 -50 10 -14 2 -45 9 -70 15 -25 5 -56 12
-70 15 -14 2 -61 12 -105 20 -44 9 -81 16 -81 16 -4 0 -24 58 -28 80 -2 14 -9
37 -15 53 -6 15 -9 27 -6 27 2 0 -2 21 -10 48 -8 26 -16 58 -19 72 -3 14 -31
122 -61 240 -31 118 -58 222 -60 230 -1 8 -8 35 -15 60 -7 25 -14 52 -16 60
-2 8 -8 35 -15 60 -6 25 -12 52 -14 60 -2 8 -15 60 -30 115 -14 55 -28 107
-30 115 -2 8 -24 96 -49 195 -26 99 -49 191 -52 203 -2 13 -12 49 -20 80 -9
32 -24 91 -34 132 -10 41 -30 118 -44 170 -13 52 -45 178 -71 279 l-47 183 24
25 c13 14 151 156 308 314 322 327 266 290 465 304 50 3 110 8 135 10 25 2 86
6 135 9 50 4 113 9 140 12 28 2 81 7 119 9 37 2 70 6 72 8 5 5 311 0 399 -7z
m-29 -1339 c3 -3 -14 -67 -36 -143 -51 -169 -91 -306 -94 -319 -1 -5 -12 -41
-24 -80 l-21 -70 -88 1 c-48 1 -91 2 -95 3 -4 1 4 34 16 74 23 70 84 277 92
307 11 46 63 220 67 227 5 9 174 9 183 0z"/>
</g>
</svg>
